# xmcd
#
# Track frame offsets: 
#        150
#        20462
#        31562
#        46112
#        58782
#        69352
#        79875
#        94775
#        105910
#        118772
#        131317
#        163155
#        182300
#        197632
#        208770
#        220982
#        234940
#        248042
#        264142
#        278910
#
# Disc length: 3943 seconds
#
# Revision: 6
# Processed by: cddbd v1.5.2PL0 Copyright (c) Steve Scherf et al.
# Submitted via: ExactAudioCopy v0.95b4
#
DISCID=030f6514
DTITLE=The Animals - The Best Of The Animals
DYEAR=2002
DGENRE=Rock
TTITLE0=The House Of The Rising Sun
TTITLE1=Don't Let Me Be Misunderstood
TTITLE2=We've Gotta Get Out Of This Place
TTITLE3=Roadrunner
TTITLE4=Baby Let Me Take You Home
TTITLE5=Club A Go Go
TTITLE6=Boom Boom
TTITLE7=Gonna Send You Back To Walker
TTITLE8=Dimples
TTITLE9=I'm Crying
TTITLE10=Talkin' 'Bout You (Full Version)
TTITLE11=I'm Mad Again
TTITLE12=I Believe To My Soul
TTITLE13=I Ain't Got You
TTITLE14=Bring It On Home To Me
TTITLE15=It's My Life
TTITLE16=Bright Lights Big City
TTITLE17=I'm Gonna Change The World
TTITLE18=Don't Bring Me Down
TTITLE19=Inside-Looking Out
EXTD=YEAR: 1422
EXTT0=
EXTT1=
EXTT2=
EXTT3=
EXTT4=
EXTT5=
EXTT6=
EXTT7=
EXTT8=
EXTT9=
EXTT10=
EXTT11=
EXTT12=
EXTT13=
EXTT14=
EXTT15=
EXTT16=
EXTT17=
EXTT18=
EXTT19=
PLAYORDER=
